<svg width="390" height="341" viewBox="0 0 390 341" fill="none" xmlns="http://www.w3.org/2000/svg">
<rect y="17.05" width="390" height="320.941" fill="#289A0B"/>
<mask id="path-2-inside-1_128_1283" fill="white">
<path d="M93.002 261.768H297.002V327.962H93.002V261.768Z"/>
</mask>
<path d="M93.002 261.768H297.002V327.962H93.002V261.768Z" fill="#289A0B"/>
<path d="M93.002 261.768V259.768H91.002V261.768H93.002ZM297.002 261.768H299.002V259.768H297.002V261.768ZM93.002 263.768H297.002V259.768H93.002V263.768ZM295.002 261.768V327.962H299.002V261.768H295.002ZM95.002 327.962V261.768H91.002V327.962H95.002Z" fill="white" fill-opacity="0.7" mask="url(#path-2-inside-1_128_1283)"/>
<mask id="path-4-inside-2_128_1283" fill="white">
<path d="M142 293.862H248V327.962H142V293.862Z"/>
</mask>
<path d="M142 293.862H248V327.962H142V293.862Z" fill="#289A0B"/>
<path d="M142 293.862V291.862H140V293.862H142ZM248 293.862H250V291.862H248V293.862ZM142 295.862H248V291.862H142V295.862ZM246 293.862V327.962H250V293.862H246ZM144 327.962V293.862H140V327.962H144Z" fill="white" fill-opacity="0.7" mask="url(#path-4-inside-2_128_1283)"/>
<line x1="0.00585938" y1="327.404" x2="390" y2="327.404" stroke="white" stroke-opacity="0.8" stroke-width="2"/>
<line y1="44.4367" x2="389.994" y2="44.4367" stroke="white" stroke-opacity="0.7" stroke-width="2"/>
<circle cx="195" cy="45" r="45" fill="#289A0B"/>
<circle cx="195" cy="45" r="44" stroke="white" stroke-opacity="0.7" stroke-width="2"/>
<mask id="path-10-inside-3_128_1283" fill="white">
<path d="M242 263.774C242 261.93 240.784 260.104 238.422 258.4C236.06 256.697 232.598 255.149 228.234 253.845C223.87 252.541 218.688 251.507 212.986 250.801C207.284 250.096 201.172 249.732 195 249.732C188.828 249.732 182.716 250.096 177.014 250.801C171.312 251.507 166.13 252.541 161.766 253.845C157.402 255.149 153.94 256.697 151.578 258.4C149.216 260.104 148 261.93 148 263.774L195 263.774H242Z"/>
</mask>
<path d="M242 263.774C242 261.93 240.784 260.104 238.422 258.4C236.06 256.697 232.598 255.149 228.234 253.845C223.87 252.541 218.688 251.507 212.986 250.801C207.284 250.096 201.172 249.732 195 249.732C188.828 249.732 182.716 250.096 177.014 250.801C171.312 251.507 166.13 252.541 161.766 253.845C157.402 255.149 153.94 256.697 151.578 258.4C149.216 260.104 148 261.93 148 263.774L195 263.774H242Z" fill="#289A0B" stroke="white" stroke-opacity="0.7" stroke-width="4" mask="url(#path-10-inside-3_128_1283)"/>
</svg>
